HIERARCHY
ROOT Root
{
  OFFSET 0.0 0.0 0.0
  CHANNELS 6 Xposition Yposition Zposition Zrotation Yrotation Xrotation
  JOINT Hips
  {
    OFFSET 0.0 100.0 0.0
    CHANNELS 6 Xposition Yposition Zposition Zrotation Yrotation Xrotation
    JOINT Spine1
    {
      OFFSET -0.013727 5.003763 -0.053727
      CHANNELS 3 Zrotation Yrotation Xrotation
      JOINT Spine2
      {
        OFFSET -0.0 7.125301 -0.029825
        CHANNELS 3 Zrotation Yrotation Xrotation
        JOINT Chest
        {
          OFFSET -1e-06 7.550063 -0.815971
          CHANNELS 3 Zrotation Yrotation Xrotation
          JOINT Neck1
          {
            OFFSET -0.181677 26.311295 -0.553348
            CHANNELS 3 Zrotation Yrotation Xrotation
            JOINT Neck2
            {
              OFFSET -3e-06 7.709397 2.302585
              CHANNELS 3 Zrotation Yrotation Xrotation
              JOINT Head
              {
                OFFSET -5e-06 6.128916 1.953709
                CHANNELS 3 Zrotation Yrotation Xrotation
                JOINT HeadEnd
                {
                  OFFSET 0.003598 16.065403 -1.835379
                  CHANNELS 3 Zrotation Yrotation Xrotation
                }
                JOINT Jaw
                {
                  OFFSET 0.002637 0.475592 3.094941
                  CHANNELS 3 Zrotation Yrotation Xrotation
                }
                JOINT LeftEye
                {
                  OFFSET 3.206381 5.380205 7.586883
                  CHANNELS 3 Zrotation Yrotation Xrotation
                }
                JOINT RightEye
                {
                  OFFSET -3.22244 5.361869 7.558234
                  CHANNELS 3 Zrotation Yrotation Xrotation
                }
              }
            }
          }
          JOINT LeftShoulder
          {
            OFFSET 1.621652 23.237164 5.113413
            CHANNELS 3 Zrotation Yrotation Xrotation
            JOINT LeftArm
            {
              OFFSET 14.919846 2e-06 -5.502326
              CHANNELS 3 Zrotation Yrotation Xrotation
              JOINT LeftForeArm
              {
                OFFSET 28.739307 0.0 -0.002588
                CHANNELS 3 Zrotation Yrotation Xrotation
                JOINT LeftHand
                {
                  OFFSET 27.093981 -1e-06 0.002609
                  CHANNELS 3 Zrotation Yrotation Xrotation
                  JOINT LeftHandThumb1
                  {
                    OFFSET 2.276482 -1.392045 3.191413
                    CHANNELS 3 Zrotation Yrotation Xrotation
                    JOINT LeftHandThumb2
                    {
                      OFFSET 4.012836 -1.828127 1.641654
                      CHANNELS 3 Zrotation Yrotation Xrotation
                      JOINT LeftHandThumb3
                      {
                        OFFSET 2.798515 0.0 -3e-06
                        CHANNELS 3 Zrotation Yrotation Xrotation
                        JOINT LeftHandThumbEnd
                        {
                          OFFSET 3.180793 -4e-06 4e-06
                          CHANNELS 3 Zrotation Yrotation Xrotation
                        }
                      }
                    }
                  }
                  JOINT LeftHandIndex1
                  {
                    OFFSET 3.247555 -0.531998 2.296169
                    CHANNELS 3 Zrotation Yrotation Xrotation
                    JOINT LeftHandIndex2
                    {
                      OFFSET 6.364578 0.01206 0.1786
                      CHANNELS 3 Zrotation Yrotation Xrotation
                      JOINT LeftHandIndex3
                      {
                        OFFSET 3.662364 0.0 0.0
                        CHANNELS 3 Zrotation Yrotation Xrotation
                        JOINT LeftHandIndex4
                        {
                          OFFSET 2.329242 4e-06 4e-06
                          CHANNELS 3 Zrotation Yrotation Xrotation
                          JOINT LeftHandIndexEnd
                          {
                            OFFSET 2.759615 -0.180537 -0.113024
                            CHANNELS 3 Zrotation Yrotation Xrotation
                          }
                        }
                      }
                    }
                  }
                  JOINT LeftHandMiddle1
                  {
                    OFFSET 3.163495 0.240981 1.000332
                    CHANNELS 3 Zrotation Yrotation Xrotation
                    JOINT LeftHandMiddle2
                    {
                      OFFSET 6.19078 -0.259278 -1.002548
                      CHANNELS 3 Zrotation Yrotation Xrotation
                      JOINT LeftHandMiddle3
                      {
                        OFFSET 4.35652 -4e-06 -1e-06
                        CHANNELS 3 Zrotation Yrotation Xrotation
                        JOINT LeftHandMiddle4
                        {
                          OFFSET 2.996877 -8e-06 0.0
                          CHANNELS 3 Zrotation Yrotation Xrotation
                          JOINT LeftHandMiddleEnd
                          {
                            OFFSET 2.304287 -0.294569 -0.031741
                            CHANNELS 3 Zrotation Yrotation Xrotation
                          }
                        }
                      }
                    }
                  }
                  JOINT LeftHandRing1
                  {
                    OFFSET 2.882643 -0.053652 -0.322543
                    CHANNELS 3 Zrotation Yrotation Xrotation
                    JOINT LeftHandRing2
                    {
                      OFFSET 5.854541 -0.486202 -1.373841
                      CHANNELS 3 Zrotation Yrotation Xrotation
                      JOINT LeftHandRing3
                      {
                        OFFSET 4.350578 0.0 3e-06
                        CHANNELS 3 Zrotation Yrotation Xrotation
                        JOINT LeftHandRing4
                        {
                          OFFSET 2.651321 7e-06 2e-06
                          CHANNELS 3 Zrotation Yrotation Xrotation
                          JOINT LeftHandRingEnd
                          {
                            OFFSET 1.936105 0.077687 -7.1e-05
                            CHANNELS 3 Zrotation Yrotation Xrotation
                          }
                        }
                      }
                    }
                  }
                  JOINT LeftHandPinky1
                  {
                    OFFSET 2.8655 -0.310005 -1.600378
                    CHANNELS 3 Zrotation Yrotation Xrotation
                    JOINT LeftHandPinky2
                    {
                      OFFSET 5.087849 -1.331141 -1.77123
                      CHANNELS 3 Zrotation Yrotation Xrotation
                      JOINT LeftHandPinky3
                      {
                        OFFSET 3.070974 4e-06 0.0
                        CHANNELS 3 Zrotation Yrotation Xrotation
                        JOINT LeftHandPinky4
                        {
                          OFFSET 1.549672 0.0 1e-06
                          CHANNELS 3 Zrotation Yrotation Xrotation
                          JOINT LeftHandPinkyEnd
                          {
                            OFFSET 1.944893 -0.157802 0.057219
                            CHANNELS 3 Zrotation Yrotation Xrotation
                          }
                        }
                      }
                    }
                  }
                }
              }
            }
          }
          JOINT RightShoulder
          {
            OFFSET -1.380118 23.180309 5.214158
            CHANNELS 3 Zrotation Yrotation Xrotation
            JOINT RightArm
            {
              OFFSET -15.037196 1.2e-05 -5.545604
              CHANNELS 3 Zrotation Yrotation Xrotation
              JOINT RightForeArm
              {
                OFFSET -28.736639 2e-06 -0.002597
                CHANNELS 3 Zrotation Yrotation Xrotation
                JOINT RightHand
                {
                  OFFSET -27.133619 -0.0 0.002613
                  CHANNELS 3 Zrotation Yrotation Xrotation
                  JOINT RightHandThumb1
                  {
                    OFFSET -2.274032 -1.383988 3.163127
                    CHANNELS 3 Zrotation Yrotation Xrotation
                    JOINT RightHandThumb2
                    {
                      OFFSET -4.011429 -1.827466 1.640914
                      CHANNELS 3 Zrotation Yrotation Xrotation
                      JOINT RightHandThumb3
                      {
                        OFFSET -2.794935 -4e-06 -3e-06
                        CHANNELS 3 Zrotation Yrotation Xrotation
                        JOINT RightHandThumbEnd
                        {
                          OFFSET -3.183852 4e-06 1e-06
                          CHANNELS 3 Zrotation Yrotation Xrotation
                        }
                      }
                    }
                  }
                  JOINT RightHandIndex1
                  {
                    OFFSET -3.253266 -0.520057 2.282866
                    CHANNELS 3 Zrotation Yrotation Xrotation
                    JOINT RightHandIndex2
                    {
                      OFFSET -6.341917 0.012471 0.178266
                      CHANNELS 3 Zrotation Yrotation Xrotation
                      JOINT RightHandIndex3
                      {
                        OFFSET -3.654871 -8e-06 -0.0
                        CHANNELS 3 Zrotation Yrotation Xrotation
                        JOINT RightHandIndex4
                        {
                          OFFSET -2.327586 0.0 1e-06
                          CHANNELS 3 Zrotation Yrotation Xrotation
                          JOINT RightHandIndexEnd
                          {
                            OFFSET -2.76179 -0.180656 -0.113078
                            CHANNELS 3 Zrotation Yrotation Xrotation
                          }
                        }
                      }
                    }
                  }
                  JOINT RightHandMiddle1
                  {
                    OFFSET -3.168106 0.246593 1.00103
                    CHANNELS 3 Zrotation Yrotation Xrotation
                    JOINT RightHandMiddle2
                    {
                      OFFSET -6.180828 -0.258836 -1.000895
                      CHANNELS 3 Zrotation Yrotation Xrotation
                      JOINT RightHandMiddle3
                      {
                        OFFSET -4.348901 0.0 -0.0
                        CHANNELS 3 Zrotation Yrotation Xrotation
                        JOINT RightHandMiddle4
                        {
                          OFFSET -3.00024 -4e-06 -2e-06
                          CHANNELS 3 Zrotation Yrotation Xrotation
                          JOINT RightHandMiddleEnd
                          {
                            OFFSET -2.30252 -0.29437 -0.031706
                            CHANNELS 3 Zrotation Yrotation Xrotation
                          }
                        }
                      }
                    }
                  }
                  JOINT RightHandRing1
                  {
                    OFFSET -2.88569 -0.067952 -0.308858
                    CHANNELS 3 Zrotation Yrotation Xrotation
                    JOINT RightHandRing2
                    {
                      OFFSET -5.854198 -0.48613 -1.373731
                      CHANNELS 3 Zrotation Yrotation Xrotation
                      JOINT RightHandRing3
                      {
                        OFFSET -4.33881 -4e-06 -0.0
                        CHANNELS 3 Zrotation Yrotation Xrotation
                        JOINT RightHandRing4
                        {
                          OFFSET -2.654903 -4e-06 4e-06
                          CHANNELS 3 Zrotation Yrotation Xrotation
                          JOINT RightHandRingEnd
                          {
                            OFFSET -1.933568 0.077527 -5.2e-05
                            CHANNELS 3 Zrotation Yrotation Xrotation
                          }
                        }
                      }
                    }
                  }
                  JOINT RightHandPinky1
                  {
                    OFFSET -2.866425 -0.342796 -1.584145
                    CHANNELS 3 Zrotation Yrotation Xrotation
                    JOINT RightHandPinky2
                    {
                      OFFSET -5.091371 -1.332055 -1.772385
                      CHANNELS 3 Zrotation Yrotation Xrotation
                      JOINT RightHandPinky3
                      {
                        OFFSET -3.062664 -4e-06 1e-06
                        CHANNELS 3 Zrotation Yrotation Xrotation
                        JOINT RightHandPinky4
                        {
                          OFFSET -1.546529 4e-06 -2e-06
                          CHANNELS 3 Zrotation Yrotation Xrotation
                          JOINT RightHandPinkyEnd
                          {
                            OFFSET -1.945119 -0.157718 0.057211
                            CHANNELS 3 Zrotation Yrotation Xrotation
                          }
                        }
                      }
                    }
                  }
                }
              }
            }
          }
        }
      }
    }
    JOINT LeftLeg
    {
      OFFSET 10.043214 -8.434526 2.595655
      CHANNELS 3 Zrotation Yrotation Xrotation
      JOINT LeftShin
      {
        OFFSET -1e-06 -43.221752 -0.802913
        CHANNELS 3 Zrotation Yrotation Xrotation
        JOINT LeftFoot
        {
          OFFSET 1e-06 -42.155094 -3.481523
          CHANNELS 3 Zrotation Yrotation Xrotation
          JOINT LeftToeBase
          {
            OFFSET 0.0 -5.059472 13.231529
            CHANNELS 3 Zrotation Yrotation Xrotation
            JOINT LeftToeEnd
            {
              OFFSET -0.009607 -1.647619 6.513017
              CHANNELS 3 Zrotation Yrotation Xrotation
            }
          }
        }
      }
    }
    JOINT RightLeg
    {
      OFFSET -10.047278 -8.29526 2.620317
      CHANNELS 3 Zrotation Yrotation Xrotation
      JOINT RightShin
      {
        OFFSET 1e-06 -43.362206 -0.805556
        CHANNELS 3 Zrotation Yrotation Xrotation
        JOINT RightFoot
        {
          OFFSET 2e-06 -42.117393 -3.478398
          CHANNELS 3 Zrotation Yrotation Xrotation
          JOINT RightToeBase
          {
            OFFSET -0.0 -5.079609 13.284196
            CHANNELS 3 Zrotation Yrotation Xrotation
            JOINT RightToeEnd
            {
              OFFSET 0.009532 -1.634378 6.460591
              CHANNELS 3 Zrotation Yrotation Xrotation
            }
          }
        }
      }
    }
  }
}
MOTION
Frames: 4
Frame Time: 0.03333333333333333
0.0 0.0 0.0 0.0 -0.0 0.0 -11.795121 98.35672 233.457977 -1.615008 22.189339 0.332906 1.656584 -0.628802 -2.28073 0.180117 -1.673666 -5.879101 -0.333556 -3.599742 11.58567 9.328255 0.43809 -6.222328 -2.763717 -5.068737 -3.534553 -0.038427 -7.480334 -10.533547 7.7e-05 -2.2e-05 6e-06 -0.089845 -0.095316 0.047339 0.569662 -3.81326 -10.574944 -0.747707 3.625444 -10.598462 -2.29891 -9.481377 15.848722 -67.311829 -28.927685 41.156128 174.466003 -79.560066 -174.660278 7.217678 7.549091 49.856491 -5.882106 9.861288 0.702591 -10.936873 -0.360578 7.15621 3e-06 8.774831 -1e-06 -18.064575 17.60371 4.782767 -1.844032 2.498506 -2.507279 -10.163601 4.678944 4.62111 -20.976028 -8e-06 2e-06 -21.226292 2.451694 -3.594002 2e-06 -6e-06 -0.0 -1.362681 2.240798 -0.746323 -21.334919 0.584908 3.008326 -13.821217 -7e-06 3e-06 -23.887177 -0.249081 -0.839479 -60.258648 3.00607 -1.236732 -0.294025 1.679687 0.833257 -14.218212 0.093213 1.300581 -34.212063 -0.287566 0.967173 -20.033218 0.964536 1.212847 -1e-06 1e-06 -0.0 -3.440389 0.788234 0.501655 -15.928191 -3.167314 2.999707 -6.338828 -3e-06 2e-06 -18.123453 3.648182 -4.905671 -5e-06 1e-06 -2e-06 9.834665 5.809741 22.183836 41.449505 -11.306956 19.51993 -0.673856 67.602455 -0.874692 -28.252331 -0.801293 2.306241 2.243542 -5.255039 -3.18016 14.282898 -0.826594 6.952511 -2e-06 -12.69061 -0.0 16.509409 -17.914009 2.709755 1.665665 -1.955922 -2.8783 4.727802 -4.170589 4.993929 11.020534 3e-06 0.0 12.109058 -3.735718 -2.866784 -1e-06 0.0 1e-06 1.291987 -1.928552 -1.49809 14.800136 0.567468 3.865611 14.24258 -1.341738 -6.660658 19.631977 0.143923 -0.648243 50.363514 -0.716441 -6.247031 0.353028 -1.51115 -0.031939 20.222801 3.68431 2.316637 18.787285 1e-06 2e-06 10.751634 -0.479871 1.397907 0.0 -1e-06 1e-06 3.27381 0.305948 -0.58011 21.48683 11.830376 2.26614 8.162933 1e-06 1e-06 18.399096 -3.798988 -4.940578 2e-06 0.0 -1e-06 4.695745 2.854877 2.299985 -0.000492 -0.261989 28.981674 -2.830379 -7.071878 -3.443897 2.084324 -1.90374 -20.924726 -0.0 -1e-06 2e-06 6.638862 -22.305216 -25.013096 0.235584 -0.757998 9.980894 -1.923911 -10.451242 16.319078 -1.385787 0.845149 -3.297662 0.0 0.0 -1e-06 
0.0 0.0 0.0 0.0 -0.0 0.0 -11.756001 97.137329 237.308075 -2.494815 18.824511 -0.614477 2.991857 -0.44119 -2.334455 0.361873 -0.948693 -5.918166 0.1547 -2.595859 11.626799 7.60288 0.562373 -5.815511 -2.632132 -4.573175 -3.493817 -1.015284 -6.765131 -9.570101 7.7e-05 -2.2e-05 6e-06 -0.092164 -0.147247 -0.007833 0.597015 -3.843456 -10.602983 -0.776542 3.553963 -10.612534 -5.988451 -6.747812 16.494793 -64.409988 -21.429375 37.128506 171.712357 -82.617378 -171.726852 5.53383 11.594339 50.984173 -5.882109 9.861286 0.702591 -10.936874 -0.360574 7.156207 1e-06 8.774826 -1e-06 -17.525774 17.69614 5.088708 -1.844034 2.498503 -2.507279 -10.163604 4.678946 4.621109 -20.976028 -1e-06 1e-06 -21.226292 2.451697 -3.594002 -0.0 -5e-06 -1e-06 -1.362682 2.240798 -0.746323 -21.334923 0.58491 3.008322 -13.821218 -2e-06 1e-06 -23.887177 -0.249078 -0.839485 -59.841072 3.080827 -1.317364 -0.294024 1.679689 0.833255 -14.218215 0.093216 1.300581 -34.212059 -0.287562 0.967168 -20.03322 0.964536 1.212843 0.0 1e-06 -1e-06 -3.440389 0.788233 0.501657 -15.928192 -3.167308 2.999707 -6.338828 -2e-06 2e-06 -18.123457 3.648184 -4.905672 -4e-06 0.0 -1e-06 13.567952 7.030119 21.771414 38.920582 -5.936549 17.665424 -2.339556 67.453163 -2.128976 -30.319637 1.7597 5.015141 2.243542 -5.255037 -3.180159 14.282896 -0.826598 6.952505 -0.0 -12.690607 2e-06 16.070274 -17.824844 2.82039 1.665668 -1.955922 -2.8783 4.7278 -4.170589 4.993926 11.020531 1e-06 -1e-06 12.109058 -3.735717 -2.866786 -0.0 -1e-06 -1e-06 1.291986 -1.928549 -1.49809 14.800132 0.567467 3.865608 14.24258 -1.341738 -6.660661 19.631975 0.143924 -0.648246 49.780388 -0.964178 -6.283888 0.353029 -1.51115 -0.03194 20.222803 3.684308 2.316629 18.787285 3e-06 -2e-06 10.751634 -0.479869 1.397905 1e-06 1e-06 1e-06 3.273809 0.305946 -0.580111 21.486818 11.830374 2.26613 8.162932 0.0 -1e-06 18.399092 -3.79899 -4.940578 3e-06 -0.0 -1e-06 7.123852 5.760626 4.651966 -0.032 -0.494337 31.710642 -4.522564 -7.24885 -2.6459 2.217795 -1.946887 -24.055994 -0.0 0.0 2e-06 7.44228 -19.159414 -24.87982 0.092879 -0.640701 16.419981 -5.574094 -11.535239 6.498082 -1.416256 0.859294 -1.193971 0.0 -0.0 -1e-06 
0.0 0.0 0.0 0.0 -0.0 0.0 -11.973853 96.550552 240.508408 -4.648845 14.804214 -1.294508 4.422795 -0.100465 -2.231887 0.833975 -0.377496 -5.846603 2.005655 -1.881895 11.607976 5.312758 0.999923 -5.574818 -2.336749 -3.982706 -3.410479 -1.75201 -6.021066 -9.676266 7.7e-05 -2.3e-05 6e-06 -0.067973 -0.084689 -0.01112 0.681996 -3.774308 -10.590398 -0.812899 3.609415 -10.58083 -9.121971 -3.584353 17.196316 -62.046032 -14.347021 31.482258 167.978256 -85.492546 -167.500534 3.885756 14.525116 54.949921 -5.882108 9.861288 0.702591 -10.936873 -0.360575 7.156206 1e-06 8.774828 -0.0 -16.930222 17.824608 5.504231 -1.844032 2.498504 -2.507277 -10.163599 4.678945 4.621109 -20.976023 -4e-06 3e-06 -21.226286 2.451698 -3.593999 0.0 -6e-06 -0.0 -1.362683 2.240797 -0.746324 -21.334913 0.584909 3.008324 -13.821213 -2e-06 3e-06 -23.887171 -0.249079 -0.839483 -60.000393 3.184737 -1.357519 -0.294025 1.679688 0.833256 -14.21821 0.093214 1.30058 -34.212048 -0.287562 0.967172 -20.033211 0.964537 1.212844 -0.0 0.0 0.0 -3.440389 0.788234 0.501656 -15.928185 -3.167311 2.999707 -6.338825 -0.0 1e-06 -18.123444 3.648184 -4.905669 -4e-06 1e-06 -2e-06 16.283056 8.974984 21.878572 37.311302 2.617165 17.410454 -2.501716 63.620918 -1.716903 -33.29018 6.231589 6.962007 2.243543 -5.255039 -3.180161 14.2829 -0.826596 6.952507 -1e-06 -12.690609 1e-06 15.681188 -17.652901 2.71491 1.665668 -1.955922 -2.8783 4.727804 -4.17059 4.993928 11.020538 2e-06 -2e-06 12.109062 -3.735717 -2.866787 -0.0 -0.0 -0.0 1.291985 -1.92855 -1.49809 14.800139 0.567468 3.865611 14.242584 -1.341738 -6.660664 19.631985 0.143924 -0.648248 49.221146 -0.938955 -6.353704 0.353029 -1.511151 -0.03194 20.222811 3.684309 2.316631 18.787289 4e-06 -2e-06 10.751638 -0.479869 1.397906 -0.0 -1e-06 0.0 3.27381 0.305946 -0.580111 21.486832 11.830377 2.266134 8.162935 1e-06 -0.0 18.399099 -3.798987 -4.940581 2e-06 -2e-06 0.0 10.824815 8.892895 4.263934 -0.10076 -0.650823 37.292366 -6.470674 -6.189564 1.892646 2.312944 -1.835952 -27.908749 -0.0 0.0 2e-06 9.844123 -14.216641 -24.687195 -0.107645 -0.690865 20.737276 -6.278172 -12.849289 2.790112 -1.39877 0.863193 -0.589453 -0.0 -0.0 -1e-06 
0.0 0.0 0.0 0.0 -0.0 0.0 -12.382799 96.904793 243.44339 -5.65415 12.181888 -1.197265 4.777617 0.152013 -2.464665 0.945896 -0.00547 -5.865662 3.30459 -1.417545 11.342374 4.668137 1.103348 -4.87844 -2.277802 -4.054303 -3.405059 -2.075949 -5.948874 -9.153721 7.7e-05 -2.3e-05 6e-06 -0.042345 -0.010875 -0.010754 0.714841 -3.706415 -10.615156 -0.794421 3.686999 -10.595114 -10.367162 -1.48716 17.812414 -59.645859 -7.229367 25.237314 165.043381 -86.64019 -164.280792 4.976219 14.280972 60.748428 -5.882106 9.861287 0.70259 -10.936877 -0.360577 7.156208 -0.0 8.774827 -3e-06 -17.085445 17.356129 5.228985 -1.844031 2.498505 -2.507277 -10.163604 4.678944 4.621109 -20.97603 -5e-06 4e-06 -21.226294 2.451697 -3.593999 0.0 -6e-06 -0.0 -1.36268 2.240798 -0.746323 -21.334921 0.584908 3.008325 -13.821218 -4e-06 3e-06 -23.887178 -0.249079 -0.83948 -59.587364 3.242612 -1.288799 -0.294025 1.679688 0.833256 -14.218214 0.093213 1.300581 -34.212063 -0.287566 0.967175 -20.03322 0.964536 1.212846 0.0 0.0 -0.0 -3.44039 0.788233 0.501656 -15.928194 -3.167312 2.999708 -6.338829 -2e-06 2e-06 -18.123453 3.648183 -4.905671 -3e-06 0.0 -2e-06 18.520369 10.082034 22.086571 37.492977 12.635077 19.372749 -2.473133 57.000118 -0.745029 -36.656685 10.279359 10.019767 2.243543 -5.255037 -3.180158 14.282896 -0.826595 6.952503 -2e-06 -12.690604 -1e-06 15.683813 -17.269388 2.364084 1.665667 -1.955922 -2.878298 4.727801 -4.170588 4.993924 11.02053 4e-06 -2e-06 12.109056 -3.735716 -2.866784 1e-06 -0.0 -1e-06 1.291986 -1.92855 -1.498089 14.800132 0.567468 3.865608 14.242577 -1.341737 -6.660658 19.631973 0.143923 -0.648244 49.180969 -0.918629 -6.29811 0.35303 -1.51115 -0.03194 20.222801 3.684311 2.31663 18.787279 6e-06 -2e-06 10.751633 -0.479867 1.397906 -0.0 -0.0 -0.0 3.273808 0.305948 -0.580111 21.486822 11.830376 2.266134 8.162929 0.0 -1e-06 18.399088 -3.798984 -4.940577 3e-06 -1e-06 -0.0 12.897138 10.985116 1.991095 -0.193505 -0.813143 43.054386 -7.923412 -3.399837 10.037222 2.322285 -1.597479 -31.150341 -0.0 0.0 3e-06 11.346985 -11.418708 -22.256567 -0.11409 -0.722161 19.451328 -6.537947 -13.041424 1.682346 -1.389157 0.880051 -0.416827 0.0 -0.0 -1e-06 
